<svg xmlns="http://www.w3.org/2000/svg" width="702.85" height="681.97" viewBox="0 0 702.85 681.97">
  <title>cluster</title>
  <g>
    <path d="M349,.06a47,47,0,0,0-17.91,4.53L86.74,121.34a46.41,46.41,0,0,0-25.28,31.44L1.17,415a46,46,0,0,0,6.35,35.53c.82,1.27,1.71,2.5,2.65,3.69L179.3,664.53A46.89,46.89,0,0,0,215.83,682l271.22-.07a46.86,46.86,0,0,0,36.53-17.4L692.64,454.19a46,46,0,0,0,9-39.22L641.3,152.72A46.43,46.43,0,0,0,616,121.28L371.64,4.59A47,47,0,0,0,349,.06Z" style="fill: #326ce5"/>
    <g>
      <g>
        <path d="M335.65,157.91l-.34,6c-2,.17-4,.36-6,.59" style="fill: none;stroke: #fff;stroke-width: 6px"/>
        <path d="M318,166.13q-4.55.81-9.09,1.83a188.09,188.09,0,0,0-87.26,46.31" style="fill: none;stroke: #fff;stroke-width: 6px;stroke-dasharray: 11.495512008666992,11.495512008666992"/>
        <path d="M217.49,218.26c-1.41,1.41-2.81,2.84-4.18,4.3-1.42-1-3.78-2.66-4.89-3.47" style="fill: none;stroke: #fff;stroke-width: 6px"/>
        <path d="M197.18,216.44c-5.72-4.25-11.14-9.78-17.55-16.29-3.31-3.5-5.7-6.84-9.63-10.22-.89-.76-2.25-1.8-3.25-2.59a17.39,17.39,0,0,0-10.19-3.85,14.1,14.1,0,0,0-11.65,5.16c-5,6.32-3.43,16,3.59,21.56l.22.16c1,.78,2.15,1.78,3,2.44,4.17,3.07,8,4.65,12.13,7.09,8.74,5.4,16,9.88,21.75,15.28a8.78,8.78,0,0,1,1.68,2.83" style="fill: none;stroke: #fff;stroke-width: 6px;stroke-dasharray: 12.076034545898438,12.076034545898438"/>
        <path d="M188.78,243.81l4.47,4c-1.11,1.66-2.19,3.35-3.24,5" style="fill: none;stroke: #fff;stroke-width: 6px"/>
        <path d="M184.26,262.79a189.08,189.08,0,0,0-22.17,105.28" style="fill: none;stroke: #fff;stroke-width: 6px;stroke-dasharray: 11.483283996582031,11.483283996582031"/>
        <path d="M162.64,373.79c.23,2,.48,4,.77,5.95l-5.76,1.68" style="fill: none;stroke: #fff;stroke-width: 6px"/>
        <path d="M148.42,388.62c-6.88,1.82-14.57,2.61-23.64,3.56-4.8.4-8.94.16-14,1.13-1.12.21-2.68.62-3.9.9l-.13,0-.22.07c-8.62,2.08-14.16,10-12.37,17.81s10.2,12.56,18.87,10.69a1.46,1.46,0,0,1,.22,0l.28-.1c1.21-.26,2.73-.56,3.78-.84,5-1.34,8.63-3.31,13.13-5,9.67-3.47,17.69-6.37,25.5-7.5a8.85,8.85,0,0,1,3.41.49" style="fill: none;stroke: #fff;stroke-width: 6px;stroke-dasharray: 12.08568000793457,12.08568000793457"/>
        <path d="M164.78,412.2l5.91-1c.61,1.91,1.26,3.81,1.93,5.68" style="fill: none;stroke: #fff;stroke-width: 6px"/>
        <path d="M176.8,427.52a190.41,190.41,0,0,0,68.34,82.7" style="fill: none;stroke: #fff;stroke-width: 6px;stroke-dasharray: 11.44635009765625,11.44635009765625"/>
        <path d="M249.92,513.36c1.69,1.07,3.39,2.12,5.11,3.13l-2.3,5.54" style="fill: none;stroke: #fff;stroke-width: 6px"/>
        <path d="M252.83,533.21c-2.91,6.75-7.37,13.87-12.39,21.72-2.68,4-5.43,7.11-7.84,11.69-.58,1.1-1.32,2.78-1.88,3.94-3.76,8-1,17.3,6.22,20.78s16.28-.19,20.19-8.25l0,0s0,0,0,0c.55-1.15,1.34-2.65,1.81-3.72,2.07-4.75,2.76-8.82,4.22-13.41,3.15-7.92,5.15-16.17,8.67-22.38" style="fill: none;stroke: #fff;stroke-width: 6px;stroke-dasharray: 11.653487205505371,11.653487205505371"/>
        <path d="M275.31,538.84a14.85,14.85,0,0,1,5.5-2.28l3.32-6q2.79,1.07,5.63,2.06" style="fill: none;stroke: #fff;stroke-width: 6px"/>
        <path d="M300.68,536.06a188.78,188.78,0,0,0,93.32,2.4q7.14-1.62,14-3.75" style="fill: none;stroke: #fff;stroke-width: 6px;stroke-dasharray: 11.454693794250488,11.454693794250488"/>
        <path d="M413.45,532.93c1.9-.65,3.78-1.32,5.65-2,.82,1.46,2.26,4.1,2.91,5.25" style="fill: none;stroke: #fff;stroke-width: 6px"/>
        <path d="M430.76,543c3.42,6.4,5.94,13.85,9,22.69,1.46,4.59,2.18,8.66,4.25,13.41.47,1.08,1.26,2.6,1.81,3.75,3.9,8.08,12.94,11.78,20.22,8.28s10-12.74,6.22-20.78c-.56-1.16-1.33-2.84-1.91-3.94-2.42-4.58-5.16-7.65-7.84-11.66-4.87-7.62-9-14.11-11.87-20.57" style="fill: none;stroke: #fff;stroke-width: 6px;stroke-dasharray: 11.577771186828613,11.577771186828613"/>
        <path d="M449,528.62c0-2.25.92-4,1.59-5.75-.56-.63-1.74-4.22-2.44-5.91,1.72-1,3.43-2.06,5.12-3.13" style="fill: none;stroke: #fff;stroke-width: 6px"/>
        <path d="M462.83,507.37A190.57,190.57,0,0,0,528.59,422" style="fill: none;stroke: #fff;stroke-width: 6px;stroke-dasharray: 11.501800537109375,11.501800537109375"/>
        <path d="M530.59,416.59c.67-1.88,1.3-3.78,1.91-5.69,1.72.27,4.61.78,5.91,1" style="fill: none;stroke: #fff;stroke-width: 6px"/>
        <path d="M549.66,409.42c7,1.35,14.22,4,22.78,7,4.5,1.73,8.12,3.73,13.12,5.07,1.06.28,2.58.54,3.79.81.09,0,.18.07.28.09a1.46,1.46,0,0,0,.22,0c8.67,1.87,17.09-2.88,18.87-10.68S605,396,596.35,394c-1.26-.28-3-.77-4.25-1-5.09-1-9.24-.72-14-1.12-10.22-1.07-18.69-1.94-26.21-4.31a8.52,8.52,0,0,1-2.67-1.75" style="fill: none;stroke: #fff;stroke-width: 6px;stroke-dasharray: 12.057021141052246,12.057021141052246"/>
        <path d="M545.39,381.14l-5.76-1.68c.27-2,.51-4,.72-5.95" style="fill: none;stroke: #fff;stroke-width: 6px"/>
        <path d="M541.21,362.08A190.38,190.38,0,0,0,515.4,257.77" style="fill: none;stroke: #fff;stroke-width: 6px;stroke-dasharray: 11.465654373168945,11.465654373168945"/>
        <path d="M512.42,252.87c-1.06-1.7-2.15-3.37-3.26-5,1.21-1.1,3.27-2.93,4.47-4" style="fill: none;stroke: #fff;stroke-width: 6px"/>
        <path d="M518.76,233.4c5.46-4.75,12.16-8.89,20.09-13.78,4.15-2.44,8-4,12.15-7.09.94-.7,2.23-1.8,3.22-2.6,7-5.59,8.63-15.25,3.59-21.56S543,181.46,536,187.06c-1,.79-2.35,1.82-3.25,2.59-3.93,3.38-6.35,6.72-9.65,10.22-7.22,7.33-13.18,13.44-19.72,17.84a9,9,0,0,1-3.64,1.07" style="fill: none;stroke: #fff;stroke-width: 6px;stroke-dasharray: 12.15583324432373,12.15583324432373"/>
        <path d="M493.82,219.17l-4.88,3.48c-1.38-1.45-2.79-2.87-4.21-4.28" style="fill: none;stroke: #fff;stroke-width: 6px"/>
        <path d="M476.35,210.6a191.84,191.84,0,0,0-97.18-45.21" style="fill: none;stroke: #fff;stroke-width: 6px;stroke-dasharray: 11.433821678161621,11.433821678161621"/>
        <path d="M373.5,164.62q-3-.36-6-.63c-.11-1.69-.25-4.57-.32-6" style="fill: none;stroke: #fff;stroke-width: 6px"/>
        <path d="M362.26,147.58c-.26-7.14.71-14.85,1.8-24,.68-4.77,1.81-8.73,2-13.91.05-1.17,0-2.88,0-4.15,0-9-6.55-16.25-14.62-16.25h0c-8.08,0-14.63,7.27-14.63,16.25,0,.13,0,.27,0,.4,0,1.22-.07,2.69,0,3.75.2,5.18,1.32,9.14,2,13.91,1.23,10.21,2.26,18.67,1.63,26.53a11,11,0,0,1-1.15,3" style="fill: none;stroke: #fff;stroke-width: 6px;stroke-dasharray: 12.07305908203125,12.07305908203125"/>
      </g>
      <g>
        <path d="M327.15,203.58q3-.48,6-.84l-.34,6" style="fill: none;stroke: #fff;stroke-width: 6px"/>
        <line x1="332.02" y1="221.68" x2="329.46" y2="267" style="fill: none;stroke: #fff;stroke-width: 6px;stroke-dasharray: 12.968324661254883,12.968324661254883"/>
        <path d="M329.09,273.47l-.34,6-.31.16a12.94,12.94,0,0,1-1.62,5.73" style="fill: none;stroke: #fff;stroke-width: 6px"/>
        <path d="M313.46,291.79a12.68,12.68,0,0,1-5.49-2.3l-.12.07-4.9-3.47" style="fill: none;stroke: #fff;stroke-width: 6px"/>
        <line x1="292.33" y1="278.56" x2="255.15" y2="252.2" style="fill: none;stroke: #fff;stroke-width: 6px;stroke-dasharray: 13.021800994873047,13.021800994873047"/>
        <path d="M249.83,248.43,244.94,245c1.42-1.4,2.88-2.77,4.36-4.11" style="fill: none;stroke: #fff;stroke-width: 6px"/>
        <path d="M258.89,232.84a151.13,151.13,0,0,1,58.61-27.41c1.16-.26,2.33-.51,3.49-.74" style="fill: none;stroke: #fff;stroke-width: 6px;stroke-dasharray: 12.502134323120117,12.502134323120117"/>
      </g>
      <g>
        <path d="M370.09,208.74l-.34-6c2,.25,4,.53,5.94.86" style="fill: none;stroke: #fff;stroke-width: 6px"/>
        <path d="M387.86,206.11a152,152,0,0,1,60.46,30.7" style="fill: none;stroke: #fff;stroke-width: 6px;stroke-dasharray: 12.430933952331543,12.430933952331543"/>
        <path d="M453,240.88q2.22,2,4.37,4.11l-4.9,3.48" style="fill: none;stroke: #fff;stroke-width: 6px"/>
        <line x1="441.94" y1="255.94" x2="405.04" y2="282.1" style="fill: none;stroke: #fff;stroke-width: 6px;stroke-dasharray: 12.922986030578613,12.922986030578613"/>
        <path d="M399.77,285.84l-4.89,3.47-.22-.1a12.81,12.81,0,0,1-5.49,2.31" style="fill: none;stroke: #fff;stroke-width: 6px"/>
        <path d="M375.79,285.09a12.67,12.67,0,0,1-1.63-5.72l-.06,0-.34-6" style="fill: none;stroke: #fff;stroke-width: 6px"/>
        <line x1="373.02" y1="260.43" x2="370.46" y2="215.2" style="fill: none;stroke: #fff;stroke-width: 6px;stroke-dasharray: 12.943388938903809,12.943388938903809"/>
      </g>
      <g>
        <path d="M219.09,278.79c1-1.74,2-3.47,3-5.17l4.47,4" style="fill: none;stroke: #fff;stroke-width: 6px"/>
        <line x1="236.3" y1="286.29" x2="270.24" y2="316.66" style="fill: none;stroke: #fff;stroke-width: 6px;stroke-dasharray: 13.012276649475098,13.012276649475098"/>
        <path d="M275.09,321l4.47,4-.06.32a12.76,12.76,0,0,1,3.47,4.83" style="fill: none;stroke: #fff;stroke-width: 6px"/>
        <path d="M279.66,344.61a12.64,12.64,0,0,1-5.22,2.85l-.06.25-5.77,1.67" style="fill: none;stroke: #fff;stroke-width: 6px"/>
        <line x1="256.19" y1="352.96" x2="212.73" y2="365.51" style="fill: none;stroke: #fff;stroke-width: 6px;stroke-dasharray: 12.926060676574707,12.926060676574707"/>
        <path d="M206.52,367.3,200.75,369c-.22-2-.39-4-.53-6" style="fill: none;stroke: #fff;stroke-width: 6px"/>
        <path d="M199.86,350.49a150.46,150.46,0,0,1,16.29-66.19" style="fill: none;stroke: #fff;stroke-width: 6px;stroke-dasharray: 12.500266075134277,12.500266075134277"/>
      </g>
      <g>
        <path d="M475.81,277.65l4.47-4h0q1.58,2.55,3.05,5.17" style="fill: none;stroke: #fff;stroke-width: 6px"/>
        <path d="M489,289.92a153.76,153.76,0,0,1,14,66.58" style="fill: none;stroke: #fff;stroke-width: 6px;stroke-dasharray: 12.472196578979492,12.472196578979492"/>
        <path d="M502.78,362.73c-.12,2-.27,4-.47,6l-5.76-1.66" style="fill: none;stroke: #fff;stroke-width: 6px"/>
        <line x1="484.05" y1="363.45" x2="440.33" y2="350.86" style="fill: none;stroke: #fff;stroke-width: 6px;stroke-dasharray: 13.001587867736816,13.001587867736816"/>
        <path d="M434.08,349.06l-5.77-1.66-.06-.31a12.86,12.86,0,0,1-5.22-2.86" style="fill: none;stroke: #fff;stroke-width: 6px"/>
        <path d="M419.73,329.77a12.8,12.8,0,0,1,3.46-4.84l0-.15,4.47-4" style="fill: none;stroke: #fff;stroke-width: 6px"/>
        <line x1="437.27" y1="312.15" x2="470.99" y2="281.96" style="fill: none;stroke: #fff;stroke-width: 6px;stroke-dasharray: 12.93235969543457,12.93235969543457"/>
      </g>
      <g>
        <polyline points="335.87 333.64 339.63 328.96 345.63 328.96" style="fill: none;stroke: #fff;stroke-width: 6px"/>
        <polyline points="357.16 328.96 363.16 328.96 366.91 333.65" style="fill: none;stroke: #fff;stroke-width: 6px"/>
        <polyline points="374.04 342.56 377.78 347.25 376.44 353.09" style="fill: none;stroke: #fff;stroke-width: 6px"/>
        <polyline points="373.88 364.21 372.53 370.06 367.13 372.66" style="fill: none;stroke: #fff;stroke-width: 6px"/>
        <polyline points="356.81 377.61 351.41 380.21 346 377.61" style="fill: none;stroke: #fff;stroke-width: 6px"/>
        <polyline points="335.63 372.63 330.22 370.03 328.88 364.18" style="fill: none;stroke: #fff;stroke-width: 6px"/>
        <polyline points="326.32 353.06 324.97 347.21 328.73 342.54" style="fill: none;stroke: #fff;stroke-width: 6px"/>
      </g>
      <g>
        <path d="M412.1,392a12.67,12.67,0,0,1,3-.51h0a13.38,13.38,0,0,1,3,.21l.13-.15,5.91,1" style="fill: none;stroke: #fff;stroke-width: 6px"/>
        <line x1="436.94" y1="394.76" x2="481.97" y2="402.38" style="fill: none;stroke: #fff;stroke-width: 6px;stroke-dasharray: 13.047381401062012,13.047381401062012"/>
        <path d="M488.4,403.46l5.91,1c-.67,1.89-1.37,3.76-2.12,5.61" style="fill: none;stroke: #fff;stroke-width: 6px"/>
        <path d="M487.05,421.49a150.72,150.72,0,0,1-43.64,52.56" style="fill: none;stroke: #fff;stroke-width: 6px;stroke-dasharray: 12.528002738952637,12.528002738952637"/>
        <path d="M438.34,477.73q-2.46,1.71-5,3.33l-2.3-5.55" style="fill: none;stroke: #fff;stroke-width: 6px"/>
        <line x1="426.06" y1="463.45" x2="408.58" y2="421.23" style="fill: none;stroke: #fff;stroke-width: 6px;stroke-dasharray: 13.056770324707031,13.056770324707031"/>
        <path d="M406.08,415.19l-2.3-5.54.1-.12a12.82,12.82,0,0,1-1-5.86" style="fill: none;stroke: #fff;stroke-width: 6px"/>
      </g>
      <g>
        <path d="M278.59,392.9l5.91-1,.13.16a12.79,12.79,0,0,1,2.53-.22h0a12.78,12.78,0,0,1,5.76,1.46" style="fill: none;stroke: #fff;stroke-width: 6px"/>
        <path d="M299.83,404a12.65,12.65,0,0,1-1,5.86l.22.28-2.29,5.54" style="fill: none;stroke: #fff;stroke-width: 6px"/>
        <line x1="291.81" y1="427.55" x2="274.54" y2="469.27" style="fill: none;stroke: #fff;stroke-width: 6px;stroke-dasharray: 12.900046348571777,12.900046348571777"/>
        <path d="M272.08,475.23l-2.3,5.55c-1.68-1.08-3.34-2.2-5-3.34" style="fill: none;stroke: #fff;stroke-width: 6px"/>
        <path d="M254.9,469.91A151.31,151.31,0,0,1,213.61,416" style="fill: none;stroke: #fff;stroke-width: 6px;stroke-dasharray: 12.445243835449219,12.445243835449219"/>
        <path d="M211.15,410.32q-1.12-2.77-2.15-5.61l5.92-1" style="fill: none;stroke: #fff;stroke-width: 6px"/>
        <line x1="227.65" y1="401.55" x2="272.22" y2="393.99" style="fill: none;stroke: #fff;stroke-width: 6px;stroke-dasharray: 12.915887832641602,12.915887832641602"/>
      </g>
      <g>
        <path d="M358.79,425.15a12.64,12.64,0,0,1,4,4.44H363l2.91,5.25" style="fill: none;stroke: #fff;stroke-width: 6px"/>
        <line x1="372.22" y1="446.19" x2="394.21" y2="485.91" style="fill: none;stroke: #fff;stroke-width: 6px;stroke-dasharray: 12.972439765930176,12.972439765930176"/>
        <path d="M397.35,491.59l2.9,5.25q-2.83.95-5.72,1.79" style="fill: none;stroke: #fff;stroke-width: 6px"/>
        <path d="M382.45,501.63a151.23,151.23,0,0,1-67.89-1.42" style="fill: none;stroke: #fff;stroke-width: 6px;stroke-dasharray: 12.448065757751465,12.448065757751465"/>
        <path d="M308.56,498.57q-2.88-.85-5.71-1.83l2.9-5.25" style="fill: none;stroke: #fff;stroke-width: 6px"/>
        <line x1="312.01" y1="480.17" x2="333.93" y2="440.53" style="fill: none;stroke: #fff;stroke-width: 6px;stroke-dasharray: 12.941488265991211,12.941488265991211"/>
        <path d="M337.07,434.87l2.9-5.25H340a12.89,12.89,0,0,1,3.94-4.46" style="fill: none;stroke: #fff;stroke-width: 6px"/>
      </g>
    </g>
  </g>
</svg>
