<svg xmlns="http://www.w3.org/2000/svg" width="702.85" height="681.97" viewBox="0 0 702.85 681.97">
  <title>machine</title>
  <g>
    <path d="M349,.06a47,47,0,0,0-17.91,4.53L86.74,121.34a46.41,46.41,0,0,0-25.28,31.44L1.17,415a46,46,0,0,0,6.35,35.53c.82,1.27,1.71,2.5,2.65,3.69L179.3,664.53A46.89,46.89,0,0,0,215.83,682l271.22-.07a46.86,46.86,0,0,0,36.53-17.4L692.64,454.19a46,46,0,0,0,9-39.22L641.3,152.72A46.43,46.43,0,0,0,616,121.28L371.64,4.59A47,47,0,0,0,349,.06Z" style="fill: #326ce5"/>
    <path d="M117.43,312V412h468V312Zm412.62,84.81A34.82,34.82,0,1,1,564.87,362,34.81,34.81,0,0,1,530.05,396.79Z" style="fill: #fff"/>
  </g>
</svg>
