<?xml version="1.0" encoding="UTF-8" standalone="no"?><svg xmlns="http://www.w3.org/2000/svg" xmlns:xlink="http://www.w3.org/1999/xlink" contentScriptType="application/ecmascript" contentStyleType="text/css" height="834px" preserveAspectRatio="none" style="width:731px;height:834px;" version="1.1" viewBox="0 0 731 834" width="731px" zoomAndPan="magnify"><defs><filter height="300%" id="f1d8xwj02ytavk" width="300%" x="-1" y="-1"><feGaussianBlur result="blurOut" stdDeviation="2.0"/><feColorMatrix in="blurOut" result="blurOut2" type="matrix" values="0 0 0 0 0 0 0 0 0 0 0 0 0 0 0 0 0 0 .4 0"/><feOffset dx="4.0" dy="4.0" in="blurOut2" result="blurOut3"/><feBlend in="SourceGraphic" in2="blurOut3" mode="normal"/></filter></defs><g><text fill="#000000" font-family="sans-serif" font-size="18" lengthAdjust="spacingAndGlyphs" textLength="424" x="156.5" y="16.708">Figure 1: State diagram with a generic provider</text><ellipse cx="143" cy="38.9531" fill="#000000" filter="url(#f1d8xwj02ytavk)" rx="10" ry="10" style="stroke: none; stroke-width: 1.0;"/><rect fill="#FEFECE" filter="url(#f1d8xwj02ytavk)" height="33.9688" rx="12.5" ry="12.5" style="stroke: #A80036; stroke-width: 1.5;" width="71" x="107.5" y="136.4531"/><text fill="#000000" font-family="sans-serif" font-size="12" lengthAdjust="spacingAndGlyphs" textLength="51" x="117.5" y="157.5918">Pending</text><polygon fill="#FBFB77" filter="url(#f1d8xwj02ytavk)" points="198.5,102.9531,198.5,203.75,601.5,203.75,601.5,112.9531,591.5,102.9531,198.5,102.9531" style="stroke: #A80036; stroke-width: 1.0;"/><polygon fill="#FBFB77" points="198.5,102.9531,198.5,149.4531,178.6387,153.4531,198.5,157.4531,198.5,203.75,601.5,203.75,601.5,112.9531,591.5,102.9531,198.5,102.9531" style="stroke: #A80036; stroke-width: 1.0;"/><line style="stroke: #A80036; stroke-width: 1.0;" x1="591.5" x2="591.5" y1="102.9531" y2="112.9531"/><line style="stroke: #A80036; stroke-width: 1.0;" x1="601.5" x2="591.5" y1="112.9531" y2="112.9531"/><text fill="#000000" font-family="sans-serif" font-size="13" lengthAdjust="spacingAndGlyphs" textLength="369" x="204.5" y="120.02">- Bootstrap provider watches Machines in "pending" state,</text><text fill="#000000" font-family="sans-serif" font-size="13" lengthAdjust="spacingAndGlyphs" textLength="65" x="212.5" y="135.1528">generates</text><text fill="#000000" font-family="sans-serif" font-size="13" font-style="italic" lengthAdjust="spacingAndGlyphs" textLength="246" x="281.5" y="135.1528">BootstrapConfig.Status.BootstrapData</text><text fill="#000000" font-family="sans-serif" font-size="13" lengthAdjust="spacingAndGlyphs" textLength="55" x="531.5" y="135.1528">and sets</text><text fill="#000000" font-family="sans-serif" font-size="13" lengthAdjust="spacingAndGlyphs" textLength="0" x="212.5" y="150.2856"/><text fill="#000000" font-family="sans-serif" font-size="13" font-style="italic" lengthAdjust="spacingAndGlyphs" textLength="193" x="212.5" y="150.2856">BootstrapConfig.Status.Ready</text><text fill="#000000" font-family="sans-serif" font-size="13" lengthAdjust="spacingAndGlyphs" textLength="45" x="409.5" y="150.2856">= true.</text><text fill="#000000" font-family="sans-serif" font-size="13" lengthAdjust="spacingAndGlyphs" textLength="157" x="204.5" y="165.4185">- Machine controller sets</text><text fill="#000000" font-family="sans-serif" font-size="13" font-style="italic" lengthAdjust="spacingAndGlyphs" textLength="190" x="365.5" y="165.4185">Machine.Spec.Bootstrap.Data</text><text fill="#000000" font-family="sans-serif" font-size="13" lengthAdjust="spacingAndGlyphs" textLength="30" x="212.5" y="180.5513">from</text><text fill="#000000" font-family="sans-serif" font-size="13" font-style="italic" lengthAdjust="spacingAndGlyphs" textLength="246" x="246.5" y="180.5513">BootstrapConfig.Status.BootstrapData</text><text fill="#000000" font-family="sans-serif" font-size="13" lengthAdjust="spacingAndGlyphs" textLength="4" x="492.5" y="180.5513">.</text><text fill="#000000" font-family="sans-serif" font-size="13" lengthAdjust="spacingAndGlyphs" textLength="361" x="204.5" y="195.6841">- Machine controller can now transition to the next state.</text><rect fill="#FEFECE" filter="url(#f1d8xwj02ytavk)" height="33.9688" rx="12.5" ry="12.5" style="stroke: #A80036; stroke-width: 1.5;" width="95" x="95.5" y="278.4531"/><text fill="#000000" font-family="sans-serif" font-size="12" lengthAdjust="spacingAndGlyphs" textLength="75" x="105.5" y="299.5918">Provisioning</text><polygon fill="#FBFB77" filter="url(#f1d8xwj02ytavk)" points="211,244.9531,211,345.75,637,345.75,637,254.9531,627,244.9531,211,244.9531" style="stroke: #A80036; stroke-width: 1.0;"/><polygon fill="#FBFB77" points="211,244.9531,211,291.4531,190.748,295.4531,211,299.4531,211,345.75,637,345.75,637,254.9531,627,244.9531,211,244.9531" style="stroke: #A80036; stroke-width: 1.0;"/><line style="stroke: #A80036; stroke-width: 1.0;" x1="627" x2="627" y1="244.9531" y2="254.9531"/><line style="stroke: #A80036; stroke-width: 1.0;" x1="637" x2="627" y1="254.9531" y2="254.9531"/><text fill="#000000" font-family="sans-serif" font-size="13" lengthAdjust="spacingAndGlyphs" textLength="376" x="217" y="262.02">- Infrastructure provider watches Machines in "provisioning"</text><text fill="#000000" font-family="sans-serif" font-size="13" lengthAdjust="spacingAndGlyphs" textLength="377" x="225" y="277.1528">state and starts creating infrastructure for those Machines.</text><text fill="#000000" font-family="sans-serif" font-size="13" lengthAdjust="spacingAndGlyphs" textLength="272" x="217" y="292.2856">- When MachineInfrastructure is ready sets</text><text fill="#000000" font-family="sans-serif" font-size="13" lengthAdjust="spacingAndGlyphs" textLength="0" x="225" y="307.4185"/><text fill="#000000" font-family="sans-serif" font-size="13" font-style="italic" lengthAdjust="spacingAndGlyphs" textLength="230" x="225" y="307.4185">MachineInfrastructure.Status.Ready</text><text fill="#000000" font-family="sans-serif" font-size="13" lengthAdjust="spacingAndGlyphs" textLength="45" x="459" y="307.4185">= true.</text><text fill="#000000" font-family="sans-serif" font-size="13" lengthAdjust="spacingAndGlyphs" textLength="157" x="217" y="322.5513">- Machine controller sets</text><text fill="#000000" font-family="sans-serif" font-size="13" font-style="italic" lengthAdjust="spacingAndGlyphs" textLength="169" x="378" y="322.5513">Machine.Status.Addresses</text><text fill="#000000" font-family="sans-serif" font-size="13" lengthAdjust="spacingAndGlyphs" textLength="30" x="225" y="337.6841">from</text><text fill="#000000" font-family="sans-serif" font-size="13" font-style="italic" lengthAdjust="spacingAndGlyphs" textLength="256" x="259" y="337.6841">MachineInfrastructure.Status.Addresses</text><text fill="#000000" font-family="sans-serif" font-size="13" lengthAdjust="spacingAndGlyphs" textLength="103" x="519" y="337.6841">and other fields.</text><rect fill="#FEFECE" filter="url(#f1d8xwj02ytavk)" height="33.9688" rx="12.5" ry="12.5" style="stroke: #A80036; stroke-width: 1.5;" width="92" x="97" y="397.4531"/><text fill="#000000" font-family="sans-serif" font-size="12" lengthAdjust="spacingAndGlyphs" textLength="72" x="107" y="418.5918">Provisioned</text><polygon fill="#FBFB77" filter="url(#f1d8xwj02ytavk)" points="209.5,386.9531,209.5,442.3516,646.5,442.3516,646.5,396.9531,636.5,386.9531,209.5,386.9531" style="stroke: #A80036; stroke-width: 1.0;"/><polygon fill="#FBFB77" points="209.5,386.9531,209.5,410.4531,189.2012,414.4531,209.5,418.4531,209.5,442.3516,646.5,442.3516,646.5,396.9531,636.5,386.9531,209.5,386.9531" style="stroke: #A80036; stroke-width: 1.0;"/><line style="stroke: #A80036; stroke-width: 1.0;" x1="636.5" x2="636.5" y1="386.9531" y2="396.9531"/><line style="stroke: #A80036; stroke-width: 1.0;" x1="646.5" x2="636.5" y1="396.9531" y2="396.9531"/><text fill="#000000" font-family="sans-serif" font-size="13" lengthAdjust="spacingAndGlyphs" textLength="416" x="215.5" y="404.02">- Machine controller watches Machines in "provisioning" state and</text><text fill="#000000" font-family="sans-serif" font-size="13" lengthAdjust="spacingAndGlyphs" textLength="0" x="223.5" y="419.1528"/><text fill="#000000" font-family="sans-serif" font-size="13" font-style="italic" lengthAdjust="spacingAndGlyphs" textLength="230" x="223.5" y="419.1528">MachineInfrastructure.Status.Ready</text><text fill="#000000" font-family="sans-serif" font-size="13" lengthAdjust="spacingAndGlyphs" textLength="45" x="457.5" y="419.1528">= true.</text><text fill="#000000" font-family="sans-serif" font-size="13" lengthAdjust="spacingAndGlyphs" textLength="157" x="215.5" y="434.2856">- Machine controller sets</text><text fill="#000000" font-family="sans-serif" font-size="13" font-style="italic" lengthAdjust="spacingAndGlyphs" textLength="141" x="376.5" y="434.2856">Machine.Status.Phase</text><text fill="#000000" font-family="sans-serif" font-size="13" lengthAdjust="spacingAndGlyphs" textLength="102" x="521.5" y="434.2856">= "provisioned".</text><rect fill="#FEFECE" filter="url(#f1d8xwj02ytavk)" height="33.9688" rx="12.5" ry="12.5" style="stroke: #A80036; stroke-width: 1.5;" width="71" x="121.5" y="493.4531"/><text fill="#000000" font-family="sans-serif" font-size="12" lengthAdjust="spacingAndGlyphs" textLength="51" x="131.5" y="514.5918">Running</text><polygon fill="#FBFB77" filter="url(#f1d8xwj02ytavk)" points="212.5,482.9531,212.5,538.3516,603.5,538.3516,603.5,492.9531,593.5,482.9531,212.5,482.9531" style="stroke: #A80036; stroke-width: 1.0;"/><polygon fill="#FBFB77" points="212.5,482.9531,212.5,506.4531,192.7871,510.4531,212.5,514.4531,212.5,538.3516,603.5,538.3516,603.5,492.9531,593.5,482.9531,212.5,482.9531" style="stroke: #A80036; stroke-width: 1.0;"/><line style="stroke: #A80036; stroke-width: 1.0;" x1="593.5" x2="593.5" y1="482.9531" y2="492.9531"/><line style="stroke: #A80036; stroke-width: 1.0;" x1="603.5" x2="593.5" y1="492.9531" y2="492.9531"/><text fill="#000000" font-family="sans-serif" font-size="13" lengthAdjust="spacingAndGlyphs" textLength="315" x="218.5" y="500.02">- Machine controller transitions to this state when</text><text fill="#000000" font-family="sans-serif" font-size="13" lengthAdjust="spacingAndGlyphs" textLength="0" x="226.5" y="515.1528"/><text fill="#000000" font-family="sans-serif" font-size="13" font-style="italic" lengthAdjust="spacingAndGlyphs" textLength="124" x="226.5" y="515.1528">Machine.ProviderID</text><text fill="#000000" font-family="sans-serif" font-size="13" lengthAdjust="spacingAndGlyphs" textLength="218" x="354.5" y="515.1528">is set and a Kubernetes Node with</text><text fill="#000000" font-family="sans-serif" font-size="13" lengthAdjust="spacingAndGlyphs" textLength="61" x="226.5" y="530.2856">the same</text><text fill="#000000" font-family="sans-serif" font-size="13" font-style="italic" lengthAdjust="spacingAndGlyphs" textLength="67" x="291.5" y="530.2856">ProviderID</text><text fill="#000000" font-family="sans-serif" font-size="13" lengthAdjust="spacingAndGlyphs" textLength="226" x="362.5" y="530.2856">has been found and in Ready state.</text><rect fill="#FEFECE" filter="url(#f1d8xwj02ytavk)" height="33.9688" rx="12.5" ry="12.5" style="stroke: #A80036; stroke-width: 1.5;" width="72" x="87" y="578.9531"/><text fill="#000000" font-family="sans-serif" font-size="12" lengthAdjust="spacingAndGlyphs" textLength="52" x="97" y="600.0918">Deleting</text><rect fill="#FEFECE" filter="url(#f1d8xwj02ytavk)" height="33.9688" rx="12.5" ry="12.5" style="stroke: #A80036; stroke-width: 1.5;" width="69" x="368.5" y="653.9531"/><text fill="#000000" font-family="sans-serif" font-size="12" lengthAdjust="spacingAndGlyphs" textLength="49" x="378.5" y="675.0918">Deleted</text><rect fill="#FEFECE" filter="url(#f1d8xwj02ytavk)" height="33.9688" rx="12.5" ry="12.5" style="stroke: #A80036; stroke-width: 1.5;" width="57" x="482.5" y="728.9531"/><text fill="#000000" font-family="sans-serif" font-size="12" lengthAdjust="spacingAndGlyphs" textLength="37" x="492.5" y="750.0918">Failed</text><ellipse cx="419" cy="813.9531" fill="none" filter="url(#f1d8xwj02ytavk)" rx="10" ry="10" style="stroke: #000000; stroke-width: 1.0;"/><ellipse cx="419.5" cy="814.4531" fill="#000000" rx="6" ry="6" style="stroke: none; stroke-width: 1.0;"/><!--link start to Pending--><path d="M143,49.1142 C143,67.4069 143,106.2791 143,131.0677 " fill="none" id="start-Pending" style="stroke: #A80036; stroke-width: 1.0;"/><polygon fill="#A80036" points="143,136.131,147,127.131,143,131.131,139,127.131,143,136.131" style="stroke: #A80036; stroke-width: 1.0;"/><text fill="#000000" font-family="sans-serif" font-size="11" lengthAdjust="spacingAndGlyphs" textLength="88" x="152" y="80.1636">Machine Create</text><!--link Pending to Provisioning--><path d="M143,170.5816 C143,196.2755 143,244.8033 143,273.2049 " fill="none" id="Pending-Provisioning" style="stroke: #A80036; stroke-width: 1.0;"/><polygon fill="#A80036" points="143,278.2638,147,269.2638,143,273.2638,139,269.2638,143,278.2638" style="stroke: #A80036; stroke-width: 1.0;"/><!--link Provisioning to Provisioned--><path d="M143,312.5029 C143,333.5342 143,369.33 143,392.4248 " fill="none" id="Provisioning-Provisioned" style="stroke: #A80036; stroke-width: 1.0;"/><polygon fill="#A80036" points="143,397.4349,147,388.4349,143,392.4349,139,388.4349,143,397.4349" style="stroke: #A80036; stroke-width: 1.0;"/><!--link Provisioned to Running--><path d="M145.5029,431.616 C147.8123,447.4517 151.2541,471.0527 153.77,488.3043 " fill="none" id="Provisioned-Running" style="stroke: #A80036; stroke-width: 1.0;"/><polygon fill="#A80036" points="154.5187,493.4388,157.178,483.9558,153.7971,488.4912,149.2618,485.1103,154.5187,493.4388" style="stroke: #A80036; stroke-width: 1.0;"/><!--link Pending to Deleting--><path d="M107.7191,170.648 C67.127,193.1959 6,236.8754 6,295.4531 C6,295.4531 6,295.4531 6,510.4531 C6,549.179 48.301,572.2464 82.0329,584.4845 " fill="none" id="Pending-Deleting" style="stroke: #A80036; stroke-width: 1.0;"/><polygon fill="#A80036" points="86.9415,586.2121,79.7802,579.4508,82.2252,584.552,77.124,586.9969,86.9415,586.2121" style="stroke: #A80036; stroke-width: 1.0;"/><!--link Provisioning to Deleting--><path d="M128.4316,312.6313 C114.6877,330.0562 95.03,358.4498 87,386.9531 C68.1764,453.7691 96.6044,535.5274 112.8952,573.9793 " fill="none" id="Provisioning-Deleting" style="stroke: #A80036; stroke-width: 1.0;"/><polygon fill="#A80036" points="115.0107,578.8914,115.1246,569.0432,113.033,574.2992,107.777,572.2075,115.0107,578.8914" style="stroke: #A80036; stroke-width: 1.0;"/><!--link Provisioned to Deleting--><path d="M132.3372,431.7192 C124.7103,445.1338 115.0974,464.5011 111,482.9531 C104.0818,514.1079 110.6983,551.0097 116.5068,573.9555 " fill="none" id="Provisioned-Deleting" style="stroke: #A80036; stroke-width: 1.0;"/><polygon fill="#A80036" points="117.8047,578.9137,119.3953,569.1941,116.5385,574.0767,111.656,571.22,117.8047,578.9137" style="stroke: #A80036; stroke-width: 1.0;"/><!--link Running to Deleting--><path d="M150.1196,527.7553 C144.8198,541.0826 137.4571,559.5979 131.7404,573.9736 " fill="none" id="Running-Deleting" style="stroke: #A80036; stroke-width: 1.0;"/><polygon fill="#A80036" points="129.8702,578.6766,136.9129,571.7918,131.7179,574.0305,129.4792,568.8355,129.8702,578.6766" style="stroke: #A80036; stroke-width: 1.0;"/><!--link Deleting to Deleted--><path d="M159.0319,605.6045 C211.5446,619.6704 308.7663,645.7119 363.2844,660.315 " fill="none" id="Deleting-Deleted" style="stroke: #A80036; stroke-width: 1.0;"/><polygon fill="#A80036" points="368.4241,661.6917,360.7655,655.4993,363.5944,660.398,358.6956,663.2269,368.4241,661.6917" style="stroke: #A80036; stroke-width: 1.0;"/><!--link Pending to Failed--><path d="M153.2983,170.6125 C161.2313,182.1554 173.3126,196.566 188,203.9531 C294.9712,257.7546 719,175.714 719,295.4531 C719,295.4531 719,295.4531 719,670.9531 C719,707.4701 604.1137,731.134 545.1068,740.8798 " fill="none" id="Pending-Failed" style="stroke: #A80036; stroke-width: 1.0;"/><polygon fill="#A80036" points="539.9215,741.7241,549.4474,744.2254,544.8565,740.9204,548.1615,736.3295,539.9215,741.7241" style="stroke: #A80036; stroke-width: 1.0;"/><!--link Provisioning to Failed--><path d="M157.3427,312.647 C168.0714,324.2062 183.8057,338.622 201,345.9531 C299.305,387.867 677,307.5856 677,414.4531 C677,414.4531 677,414.4531 677,670.9531 C677,696.7921 655.6335,696.488 633,708.9531 C605.1003,724.3185 570.016,734.1009 544.6407,739.7217 " fill="none" id="Provisioning-Failed" style="stroke: #A80036; stroke-width: 1.0;"/><polygon fill="#A80036" points="539.7001,740.7908,549.3425,742.7967,544.587,739.7332,547.6504,734.9777,539.7001,740.7908" style="stroke: #A80036; stroke-width: 1.0;"/><!--link Provisioned to Failed--><path d="M173.2868,431.4872 C181.7052,435.544 191.0094,439.425 200,441.9531 C294.2044,468.4426 635,412.5952 635,510.4531 C635,510.4531 635,510.4531 635,670.9531 C635,713.1577 581.7565,732.255 545.0476,740.4062 " fill="none" id="Provisioned-Failed" style="stroke: #A80036; stroke-width: 1.0;"/><polygon fill="#A80036" points="539.7598,741.5308,549.3951,743.5708,544.6504,740.4906,547.7307,735.7459,539.7598,741.5308" style="stroke: #A80036; stroke-width: 1.0;"/><!--link Running to Failed--><path d="M184.3723,527.6813 C190.4178,531.2416 196.8542,534.849 203,537.9531 C322.1365,598.1263 389.0596,556.2589 480,653.9531 C497.9975,673.2872 505.5773,703.4279 508.7495,723.8982 " fill="none" id="Running-Failed" style="stroke: #A80036; stroke-width: 1.0;"/><polygon fill="#A80036" points="509.4648,728.8817,512.1457,719.4048,508.7545,723.9324,504.2269,720.5412,509.4648,728.8817" style="stroke: #A80036; stroke-width: 1.0;"/><!--link Deleting to Failed--><path d="M159.2741,598.8944 C233.6828,605.4881 400.5765,623.3228 448,653.9531 C474.154,670.8456 492.3119,702.8262 502.1976,724.2684 " fill="none" id="Deleting-Failed" style="stroke: #A80036; stroke-width: 1.0;"/><polygon fill="#A80036" points="504.2985,728.9415,504.2562,719.0928,502.2482,724.3812,496.9597,722.3732,504.2985,728.9415" style="stroke: #A80036; stroke-width: 1.0;"/><!--link Deleted to Failed--><path d="M425.3671,688.1061 C434.1948,694.7471 444.4843,702.3299 454,708.9531 C462.0885,714.583 470.9672,720.4782 479.2593,725.8661 " fill="none" id="Deleted-Failed" style="stroke: #A80036; stroke-width: 1.0;"/><polygon fill="#A80036" points="483.7969,728.8023,478.4138,720.5548,479.5991,726.0861,474.0678,727.2713,483.7969,728.8023" style="stroke: #A80036; stroke-width: 1.0;"/><!--link Failed to end--><path d="M487.7845,763.1124 C469.839,776.3764 445.7041,794.2153 431.311,804.8537 " fill="none" id="Failed-end" style="stroke: #A80036; stroke-width: 1.0;"/><polygon fill="#A80036" points="427.1745,807.9111,436.7896,805.7782,431.1954,804.9391,432.0344,799.3449,427.1745,807.9111" style="stroke: #A80036; stroke-width: 1.0;"/><!--link Deleted to end--><path d="M404.93,688.2022 C408.0804,716.3589 414.2774,771.7452 417.2836,798.6128 " fill="none" id="Deleted-end" style="stroke: #A80036; stroke-width: 1.0;"/><polygon fill="#A80036" points="417.8744,803.8932,420.8488,794.5042,417.3184,798.9242,412.8984,795.3938,417.8744,803.8932" style="stroke: #A80036; stroke-width: 1.0;"/><!--
@startuml
title Figure 1: State diagram with a generic provider

(*) - -> [  Machine Create  ] "Pending"

note right
- Bootstrap provider watches Machines in "pending" state,
  generates //BootstrapConfig.Status.BootstrapData// and sets
  //BootstrapConfig.Status.Ready// = true.
- Machine controller sets //Machine.Spec.Bootstrap.Data//
  from //BootstrapConfig.Status.BootstrapData//.
- Machine controller can now transition to the next state.
end note

"Pending" - -> "Provisioning"

note right
- Infrastructure provider watches Machines in "provisioning"
  state and starts creating infrastructure for those Machines.
- When MachineInfrastructure is ready sets
  //MachineInfrastructure.Status.Ready// = true.
- Machine controller sets //Machine.Status.Addresses//
  from //MachineInfrastructure.Status.Addresses// and other fields.
end note

"Provisioning" - -> "Provisioned"

note right
- Machine controller watches Machines in "provisioning" state and
  //MachineInfrastructure.Status.Ready// = true.
- Machine controller sets //Machine.Status.Phase// = "provisioned".
end note

"Provisioned" - -> "Running"

note right
- Machine controller transitions to this state when
  //Machine.ProviderID// is set and a Kubernetes Node with
  the same //ProviderID// has been found and in Ready state.
end note


"Pending" - -> "Deleting"
"Provisioning" - -> "Deleting"
"Provisioned" - -> "Deleting"
"Running" - -> "Deleting"

"Deleting" - -> "Deleted"

"Pending" - -> "Failed"
"Provisioning" - -> "Failed"
"Provisioned" - -> "Failed"
"Running" - -> "Failed"
"Deleting" - -> "Failed"
"Deleted" - -> "Failed"

"Failed" - -> (*)
"Deleted" - -> (*)

hide footbox
@enduml

PlantUML version 1.2017.15(Mon Jul 03 12:45:34 EDT 2017)
(GPL source distribution)
Java Runtime: OpenJDK Runtime Environment
JVM: OpenJDK 64-Bit Server VM
Java Version: 11.0.4+11-post-Ubuntu-1ubuntu218.04.3
Operating System: Linux
OS Version: 5.1.14-050114-generic
Default Encoding: UTF-8
Language: en
Country: US
--></g></svg>