<svg xmlns="http://www.w3.org/2000/svg" width="702.85" height="681.97" viewBox="0 0 702.85 681.97">
  <title>machine-deployment</title>
  <g>
    <path d="M349,.06a47,47,0,0,0-17.91,4.53L86.74,121.34a46.41,46.41,0,0,0-25.28,31.44L1.17,415a46,46,0,0,0,6.35,35.53c.82,1.27,1.71,2.5,2.65,3.69L179.3,664.53A46.89,46.89,0,0,0,215.83,682l271.22-.07a46.86,46.86,0,0,0,36.53-17.4L692.64,454.19a46,46,0,0,0,9-39.22L641.3,152.72A46.43,46.43,0,0,0,616,121.28L371.64,4.59A47,47,0,0,0,349,.06Z" style="fill: #326ce5"/>
    <g>
      <path d="M482.91,352.47l-81.24-38.12,7.6,89.42,28.77-20a106.18,106.18,0,1,1-154.66-37.67l-10.29-14.77a124.18,124.18,0,0,0,142,203.79c52.55-36.6,68.07-106.81,37.85-161.71Z" style="fill: #fff"/>
      <path d="M117.43,174.64v100h468v-100Zm412.62,84.81a34.82,34.82,0,1,1,34.82-34.81A34.81,34.81,0,0,1,530.05,259.45Z" style="fill: #fff"/>
    </g>
  </g>
</svg>
